<svg width="24" height="24" viewBox="0 0 64 64" fill="none" xmlns="http://www.w3.org/2000/svg">
<path d="M60.905 5.16699C60.7748 4.86344 60.5306 4.62325 60.2248 4.49827C59.9191 4.37329 59.5765 4.37355 59.271 4.49899C55.75 5.92199 54.713 7.94899 53.715 10.11C53.799 9.84899 53.879 9.59099 53.955 9.33999C54.615 7.18899 55.05 5.76799 57.674 4.29699C57.816 4.21891 57.941 4.11325 58.0416 3.98622C58.1423 3.85918 58.2165 3.71333 58.26 3.55721C58.3035 3.4011 58.3154 3.23786 58.2949 3.0771C58.2745 2.91633 58.2222 2.76126 58.141 2.62099C57.9736 2.33579 57.7008 2.12781 57.3815 2.04194C57.0621 1.95607 56.7218 1.99919 56.434 2.16199C52.941 4.11799 52.27 6.31099 51.559 8.63199C51.094 10.148 50.593 11.778 49.204 13.69C48.05 13.184 47.179 12.843 46.147 13.097L43.409 10.407C42.4291 9.44419 41.1087 8.90725 39.735 8.91299C38.347 8.91299 37.043 9.44299 36.063 10.407L3 42.887L22.444 42.899L22.457 62L55.52 29.521C56.0005 29.0508 56.3822 28.4894 56.6428 27.8697C56.9034 27.25 57.0376 26.5845 57.0375 25.9123C57.0374 25.24 56.903 24.5746 56.6423 23.9549C56.3815 23.3353 55.9996 22.774 55.519 22.304L52.769 19.603C53.003 18.686 52.799 17.851 52.408 16.837C52.408 16.837 52.302 16.945 52.1 17.134C54.19 14.999 55.106 13.059 55.883 11.37C56.85 9.26799 57.488 7.87899 60.224 6.77199C60.3752 6.71273 60.513 6.62389 60.6294 6.51067C60.7458 6.39745 60.8385 6.26213 60.9019 6.11265C60.9653 5.96316 60.9983 5.80252 60.9988 5.64013C60.9993 5.47775 60.9674 5.31689 60.905 5.16699M41.975 19.348C42.079 19.442 42.196 19.527 42.335 19.583C42.5681 19.6757 42.8235 19.6967 43.0686 19.6434C43.3137 19.5902 43.5374 19.465 43.711 19.284C44.3896 19.4247 45.0137 19.7572 45.509 20.242C46.008 20.732 46.339 21.343 46.484 22.006C46.3006 22.173 46.173 22.3924 46.1184 22.6345C46.0639 22.8765 46.085 23.1294 46.179 23.359C46.236 23.497 46.323 23.611 46.418 23.715C46.2544 24.3025 45.9412 24.8376 45.509 25.268C44.141 26.61 41.759 26.61 40.393 25.268C40.057 24.9415 39.79 24.5508 39.6079 24.1191C39.4258 23.6874 39.3323 23.2235 39.333 22.755C39.3321 22.2866 39.4254 21.8228 39.6075 21.3912C39.7897 20.9596 40.0568 20.5691 40.393 20.243C40.8349 19.8139 41.3796 19.5057 41.975 19.348" fill="white"/>
</svg>
